<?xml version="1.0" standalone="no"?>
<!DOCTYPE svg PUBLIC "-//W3C//DTD SVG 20010904//EN"
 "http://www.w3.org/TR/2001/REC-SVG-20010904/DTD/svg10.dtd">
<svg version="1.0" xmlns="http://www.w3.org/2000/svg"
 width="225.000000pt" height="225.000000pt" viewBox="0 0 225.000000 225.000000"
 preserveAspectRatio="xMidYMid meet">

<g transform="translate(0.000000,225.000000) scale(0.100000,-0.100000)"
fill="#000000" stroke="none">
<path d="M0 1125 l0 -1125 1125 0 1125 0 0 1125 0 1125 -1125 0 -1125 0 0
-1125z m1409 670 c87 -21 174 -69 222 -123 106 -121 102 -340 -9 -455 -44 -46
-75 -65 -66 -42 4 8 1 15 -5 15 -6 0 -11 7 -11 15 0 8 -7 15 -16 15 -10 0 -14
6 -11 14 3 8 -3 22 -14 32 -13 12 -16 21 -9 29 7 9 6 16 -5 25 -11 9 -12 17
-5 30 15 28 12 40 -10 40 -14 0 -20 7 -20 21 0 16 -5 20 -20 16 -13 -3 -21 1
-25 14 -4 10 -13 19 -21 19 -8 0 -14 10 -14 22 0 12 -3 18 -7 15 -3 -4 -12 1
-20 11 -12 16 -14 16 -28 -2 -14 -18 -15 -18 -26 7 -12 27 -47 39 -73 25 -10
-6 -16 -5 -16 1 0 5 -19 9 -42 9 -23 0 -44 5 -46 11 -2 6 -9 11 -17 11 -7 0
-18 7 -25 15 -14 17 -40 3 -40 -21 0 -23 -46 -16 -63 9 -12 17 -18 19 -27 10
-7 -6 -19 -9 -26 -6 -14 5 -74 -48 -74 -66 0 -6 -9 -11 -19 -11 -11 0 -23 -9
-26 -21 -6 -19 -8 -20 -26 -3 -17 15 -19 15 -25 0 -3 -9 -12 -16 -20 -16 -8 0
-14 -7 -14 -15 0 -8 -4 -15 -9 -15 -5 0 -13 -9 -16 -20 -5 -15 -12 -19 -25
-15 -12 4 -20 0 -23 -12 -3 -10 -5 82 -6 205 l-1 222 358 0 c283 0 370 -3 421
-15z m-403 -711 c8 3 14 2 14 -3 0 -5 3 -23 7 -42 l6 -33 -35 35 c-28 28 -33
37 -24 52 10 16 11 16 14 2 2 -10 10 -14 18 -11z m44 6 c0 -5 -2 -10 -4 -10
-3 0 -8 5 -11 10 -3 6 -1 10 4 10 6 0 11 -4 11 -10z m37 -47 c-18 -61 -27 -63
-27 -6 0 32 5 53 13 56 22 8 27 -8 14 -50z m595 -42 c17 -19 43 -60 57 -91 23
-48 26 -68 26 -160 0 -93 -3 -112 -26 -161 -34 -72 -92 -130 -166 -168 -73
-36 -121 -49 -225 -61 -71 -8 -91 -7 -149 10 -37 11 -73 28 -80 37 -10 12 -16
71 -21 222 -7 229 -8 225 63 283 35 28 35 28 84 14 26 -8 52 -13 57 -10 4 3 8
0 8 -5 0 -6 11 -10 25 -9 14 1 25 6 25 10 0 4 7 8 15 8 8 0 15 5 15 10 0 13
46 31 85 33 19 1 30 7 30 17 0 8 11 21 23 28 23 13 23 14 6 33 -13 14 -14 22
-5 32 6 8 7 17 3 22 -4 4 21 -7 56 -25 34 -18 77 -49 94 -69z m-542 70 c0 -12
-20 -25 -27 -18 -7 7 6 27 18 27 5 0 9 -4 9 -9z m-206 -25 c19 7 64 -51 72
-92 8 -45 1 -51 -27 -25 -13 12 -26 21 -31 21 -16 0 -51 87 -43 106 7 17 8 17
12 2 2 -9 10 -15 17 -12z m267 -10 c14 -18 -14 -65 -63 -107 l-51 -43 6 65 c5
57 9 67 38 91 33 27 47 26 70 -6z m-294 -62 c-2 -2 -14 4 -27 13 -22 16 -22
17 -4 23 14 5 21 2 27 -13 4 -11 6 -21 4 -23z m-255 14 c-19 -19 -14 -28 13
-28 16 0 25 -6 25 -15 0 -22 22 -28 53 -16 17 7 27 7 27 1 0 -18 29 -10 40 10
6 11 17 20 25 20 8 0 15 4 15 10 0 13 99 -38 133 -69 l27 -25 -1 -190 c0 -210
-8 -283 -32 -301 -28 -20 -149 -37 -247 -33 l-95 3 -3 314 c-2 245 1 316 10
323 19 11 24 10 10 -4z m575 -10 c-3 -8 -6 -5 -6 6 -1 11 2 17 5 13 3 -3 4
-12 1 -19z"/>
</g>
</svg>
